<svg xmlns="http://www.w3.org/2000/svg" width="1476" height="513" viewBox="0 0 1476 513" fill="none"><g clip-path="url(#clip0_2001_338)"><rect width="1476" height="513" fill="#473BF0"/><g opacity="0.05" clip-path="url(#clip1_2001_338)"><path d="M342.053 395.332C333.947 359.871 266.96 350.661 189.307 339.608C170.107 336.845 150.48 334.082 131.28 330.858C46.3732 316.582 -31.2801 270.529 -106.8 225.857C-144.347 203.291 -182.747 180.725 -222 161.844V165.528C-183.173 183.949 -145.2 206.515 -108.08 228.62C-32.5601 273.292 45.5199 319.345 130.853 334.082C150.053 337.305 170.107 340.068 188.88 342.832C262.267 352.963 331.387 363.095 339.067 396.253C345.04 422.043 313.893 461.188 243.493 516.451C144.933 593.36 62.1599 629.281 -17.2001 629.281C-62.0001 629.281 -106.8 617.307 -149.467 593.36C-175.92 578.623 -199.387 560.662 -222 542.241V546.386C-199.813 564.346 -176.773 581.846 -150.747 596.123C-107.227 620.07 -62.4268 632.505 -16.7735 632.505C63.0132 632.505 146.213 596.583 245.627 519.214C318.16 462.109 348.453 422.964 342.053 395.332Z" fill="white"/><path d="M446.586 265.463C439.333 265.463 428.666 270.529 421.413 294.476C412.88 321.647 429.52 327.634 447.013 334.542C450 335.924 453.413 336.845 456.4 338.226C463.226 340.99 469.2 342.832 473.466 342.832C478.586 342.832 482 340.99 484.133 337.305C490.533 326.253 480.293 301.384 475.6 291.253C467.493 275.134 456.826 265.463 446.586 265.463ZM482.426 336.384C479.013 342.371 470.48 342.371 457.253 336.384C454.266 335.003 450.853 333.621 447.866 332.7C430.8 326.253 415.866 320.726 423.973 295.397C429.52 277.437 437.626 267.766 447.44 267.766C456.826 267.766 466.64 276.976 474.32 292.634C483.28 312.897 486.266 329.016 482.426 336.384Z" fill="white"/><path d="M-131.121 554.674C-98.6943 572.634 -70.9609 580.924 -44.5076 580.924C-16.3476 580.924 8.39906 571.713 36.9857 561.121C53.1991 555.134 71.9724 548.226 92.8791 542.7C103.546 539.937 112.932 539.476 118.906 539.476C123.172 539.476 127.012 539.476 130.852 539.937C134.266 539.937 137.679 540.397 141.092 540.397C158.586 540.397 172.239 535.792 187.172 514.147C197.412 499.41 201.252 487.897 204.666 477.765C209.786 462.568 213.626 450.594 235.812 433.554C241.359 428.949 249.466 425.725 257.572 422.502C270.372 416.975 281.039 412.37 281.466 404.541C281.892 398.094 275.066 391.186 259.706 381.975C241.786 371.383 215.759 370.001 192.719 370.001C182.479 370.001 171.812 370.462 161.572 370.462C151.332 370.922 140.239 370.922 129.999 370.922C106.959 370.922 90.7457 369.08 77.9457 365.396C3.70574 344.212 -65.8409 302.764 -127.281 266.382C-159.281 247.501 -190.854 229.079 -222.001 212.961V215.724C-191.281 231.382 -160.134 249.803 -128.134 268.685C-66.6943 305.067 3.27905 346.514 77.5191 368.159C90.7457 371.843 106.959 373.686 130.426 373.686C140.666 373.686 151.759 373.225 161.999 373.225C172.239 372.765 182.906 372.765 193.146 372.765C215.759 372.765 241.359 374.146 258.852 384.738C272.932 393.028 279.759 399.475 279.332 405.002C278.906 411.449 268.239 416.054 256.719 420.66C248.612 423.883 240.506 427.568 234.532 432.173C211.919 449.673 207.652 462.568 202.532 477.305C199.119 487.436 195.279 498.489 185.466 513.226C170.959 534.41 157.732 538.555 141.092 538.555C137.679 538.555 134.266 538.555 130.852 538.095C127.012 538.095 123.172 537.634 118.906 537.634C112.932 537.634 103.119 538.094 92.4524 540.858C71.5457 546.384 52.7724 553.292 36.5591 559.279C7.97239 569.871 -16.7743 578.621 -44.5076 578.621C-70.9609 578.621 -98.2676 570.332 -130.268 552.371C-159.708 536.252 -186.161 514.608 -211.761 493.423C-215.174 490.66 -219.014 487.436 -222.428 484.673V487.436C-219.441 490.199 -216.028 492.502 -213.041 495.265C-187.014 516.91 -160.561 538.555 -131.121 554.674Z" fill="white"/><path d="M-111.493 513.228C-79.9199 530.728 -49.1999 539.018 -16.7732 539.018C1.14677 539.018 39.9735 531.189 73.6801 517.833C103.12 506.32 138.533 486.978 138.533 461.188C138.533 430.793 83.9201 413.754 51.4934 403.622C44.2401 401.32 38.2668 399.477 34.0001 398.096C-24.4532 375.069 -82.4799 346.517 -148.187 307.372C-173.36 292.635 -197.68 277.898 -222 265.003V266.385C-198.107 279.279 -173.36 294.016 -148.613 308.753C-82.4799 347.438 -24.4532 376.451 34.0001 399.477C38.2668 401.32 44.2401 403.162 51.4934 405.004C83.9201 415.135 137.68 431.714 137.68 461.188C137.68 505.86 20.7734 537.636 -16.7732 537.636C-48.7732 537.636 -79.4932 529.347 -110.64 511.847C-136.667 497.57 -161.413 476.846 -185.733 457.504C-197.253 447.833 -209.2 438.162 -222 428.491V430.333C-209.627 439.543 -198.107 449.215 -186.587 458.425C-162.267 478.228 -137.52 498.952 -111.493 513.228Z" fill="white"/><path d="M-97.8409 484.675C-70.5343 499.872 -44.081 507.241 -16.7743 507.241C6.69236 507.241 37.839 499.872 49.7857 482.833C54.9057 475.464 56.6124 467.175 54.0524 457.504C48.5057 435.398 5.41237 419.28 -26.161 407.767C-36.401 404.082 -45.361 400.859 -50.481 398.095C-87.1743 379.674 -123.014 358.49 -158.001 337.766L-161.841 335.464C-182.748 323.49 -202.374 311.977 -222.001 300.924V302.305C-202.801 312.898 -183.174 324.871 -163.121 336.385L-159.281 338.687C-124.294 359.872 -88.0276 381.056 -51.3343 399.477C-45.7876 402.24 -36.8276 405.464 -26.5876 409.148C2.85236 419.74 47.6524 436.319 52.7724 457.964C54.9057 467.175 53.6257 475.004 48.5057 481.912C36.9857 498.03 6.2657 505.399 -17.201 505.399C-44.081 505.399 -70.5343 498.03 -97.4143 483.293C-121.308 469.938 -145.201 450.596 -168.241 431.714C-184.881 417.898 -202.801 403.622 -222.428 389.806V391.648C-203.228 405.464 -185.308 419.74 -169.094 433.096C-145.628 451.977 -121.734 471.32 -97.8409 484.675Z" fill="white"/><path d="M535.333 12.6317C537.466 3.42116 539.6 -5.78942 541.733 -15H539.6C537.466 -6.24995 535.76 2.96063 533.626 12.1712C529.786 29.2108 525.52 46.7109 522.533 65.1321C511.44 125.001 502.053 204.212 526.373 280.66C536.186 311.515 560.933 337.305 582.693 359.41C601.893 379.213 618.96 396.713 617.253 410.989C616.4 417.437 612.133 423.424 603.6 428.95C599.76 431.713 592.933 432.634 583.546 432.634C550.693 432.634 493.093 416.976 450.426 401.779C403.066 384.739 345.893 358.029 336.933 325.792C333.946 315.66 336.506 305.068 343.76 294.936C353.146 282.041 363.386 270.528 373.2 259.475C392.826 237.83 411.173 217.107 423.12 186.712C440.613 142.961 442.746 97.8296 429.52 51.7767C426.533 40.724 423.12 30.1319 420.133 21.3818C415.866 8.02645 412.453 -3.9473 409.893 -14.5395H407.76C410.32 -3.48677 414.16 8.48699 418.426 22.3029C421.413 31.5134 424.4 41.6451 427.813 52.6978C441.04 98.2902 438.906 142.961 421.84 186.251C409.893 216.186 391.546 236.909 372.346 258.554C362.533 269.607 352.293 281.12 342.48 294.476C334.8 305.068 332.24 316.12 335.226 327.173C344.186 360.331 402.213 387.502 449.146 404.542C492.24 420.2 550.266 435.858 583.12 435.858C592.933 435.858 600.186 434.476 604.453 431.713C613.84 425.726 618.533 419.279 619.386 411.91C621.093 396.252 604.026 378.752 583.973 358.489C562.213 336.384 537.893 311.055 528.08 280.66C503.76 204.672 513.146 126.382 524.24 66.5137C527.226 47.1714 531.493 29.6713 535.333 12.6317Z" fill="white"/><path d="M322.426 24.607C351.866 122.7 363.386 176.121 290.852 221.713C278.906 229.082 265.252 234.608 250.746 237.832C238.372 240.595 224.292 241.977 209.786 241.977C74.959 241.977 -110.214 120.397 -210.054 55.002L-213.468 52.6993C-216.454 50.8572 -219.441 48.5546 -222.428 46.7124V49.4756C-219.868 51.3177 -217.308 52.6993 -214.748 54.5414L-211.334 56.8441C-111.068 122.7 74.5324 244.74 210.212 244.74C225.146 244.74 238.799 243.358 251.599 240.135C266.532 236.911 280.186 230.924 292.559 223.556C366.372 177.503 354.426 123.16 324.986 23.686C321.146 11.2517 317.306 -2.10364 313.892 -15.459H311.332C314.746 -1.18258 318.586 12.1728 322.426 24.607Z" fill="white"/><path d="M152.186 10.7898C153.04 14.474 154.32 18.6188 155.6 23.2241C159.44 37.0399 158.586 46.2505 153.466 50.3953C150.906 52.6979 147.066 53.619 141.946 53.619C121.04 53.619 86.4796 33.3557 74.9596 26.9083C69.4129 23.6846 65.1462 21.382 61.7329 19.5398L44.2396 10.3293C28.0262 2.03974 12.6662 -6.71032 -2.69377 -15.4604H-5.25378C10.5329 -6.24979 27.1729 2.50026 43.8129 11.2503L61.3062 20.4609C64.7196 22.303 68.5596 24.6057 74.5329 27.8294C86.0529 34.2768 121.04 54.5401 141.946 54.5401C147.066 54.5401 151.333 53.1585 153.893 50.8558C159.44 45.79 160.293 36.1189 156.453 21.8425C155.173 17.2372 153.893 12.6319 153.04 9.4082C150.906 1.11868 148.773 -7.17085 147.066 -15.9209H145.786C147.92 -6.24979 150.053 2.50026 152.186 10.7898Z" fill="white"/><path d="M282.32 38.8815C294.267 78.487 305.36 128.685 287.867 161.382C278.907 177.501 263.547 188.553 242.213 193.619C232.4 195.922 221.733 196.843 210.213 196.843C86.9068 196.843 -91.8665 79.4081 -187.867 16.3156L-205.36 4.80234C-210.907 1.11811 -216.453 -2.10559 -222 -5.3293V-3.94771C-216.453 -0.724007 -211.333 2.03917 -206.213 5.7234L-188.293 17.2366C-92.2932 80.3291 86.9068 197.764 210.213 197.764C222.16 197.764 232.827 196.843 242.64 194.54C264.4 189.474 280.187 178.422 289.147 161.843C307.067 128.224 295.547 78.0265 283.6 37.9604C278.48 20.9209 273.36 2.96023 269.093 -15.4609H267.813C272.08 3.42075 277.2 21.3814 282.32 38.8815Z" fill="white"/><path d="M181.2 2.50011C182.053 5.72381 182.907 9.40804 184.187 14.0133C190.587 36.1187 199.547 69.2768 191.013 84.4743C187.6 90.9217 181.627 94.6059 174.373 96.448C171.387 97.3691 167.973 97.3691 164.56 97.3691C133.413 97.3691 86.48 70.1979 61.3066 55.9215C56.6133 53.1583 52.3466 50.8557 48.9333 49.0135L46.8 47.632C44.24 46.2504 42.1066 44.8688 39.9733 43.9477L31.8666 39.803C-2.2667 21.8423 -34.6934 3.42116 -64.1334 -15H-66.6934C-36.4 3.88169 -3.54669 22.3029 31.44 40.724L39.5466 44.8688C41.68 45.7898 43.8133 47.1714 46.3733 48.553L48.5066 49.9346C51.4933 51.7767 55.76 54.0794 60.88 56.8425C86.0533 71.5795 132.987 98.7507 164.56 98.7507C168.4 98.7507 171.813 98.2902 174.8 97.8296C182.48 95.9875 188.453 91.8428 192.293 84.9348C201.253 69.2768 191.867 35.6582 185.467 13.5528C184.187 8.94751 183.333 5.26328 182.48 2.03958C181.2 -3.48677 179.493 -9.47365 178.213 -15H176.933C178.213 -9.01312 179.92 -3.48677 181.2 2.50011Z" fill="white"/><path d="M210.214 -5.78942C216.187 18.6186 222.587 44.4083 223.014 70.1979C223.867 104.277 211.494 123.619 186.747 127.764C182.907 128.225 179.067 128.685 174.8 128.685C131.28 128.685 69.4136 95.0665 36.1336 77.1058C32.7203 75.2637 29.7336 73.8821 27.1736 72.5005L19.067 68.3558C-33.413 41.1846 -81.6264 12.6317 -122.586 -15H-125.146C-83.333 13.0923 -34.693 42.1056 18.2136 69.7374L26.3203 73.8821C28.8803 75.2637 31.867 77.1058 35.2803 78.4874C68.5603 96.448 130.854 130.067 174.8 130.067C179.067 130.067 183.334 129.606 187.174 129.146C212.774 124.54 225.574 104.738 224.72 70.1979C223.867 43.9477 217.894 18.1581 211.494 -6.24995C210.64 -9.01312 210.214 -12.2368 209.36 -15H208.08C208.507 -11.7763 209.36 -9.01312 210.214 -5.78942Z" fill="white"/><path d="M253.734 48.5526C254.16 50.8553 255.014 52.6974 255.44 55C262.267 77.5659 269.52 100.592 258 122.698C248.614 141.579 229.414 156.316 208.934 161.382C206.8 161.843 204.667 162.303 202.534 162.303C197.414 162.764 192.294 163.224 186.747 163.224C129.574 163.224 62.1602 127.764 13.0935 101.513L4.98685 97.3687C-58.1598 64.2106 -118.746 24.1446 -172.506 -11.3162C-174.64 -12.6978 -176.773 -14.0794 -178.48 -15.4609H-180.613C-176.773 -12.6978 -172.933 -10.3951 -172.933 -10.3951C-119.173 25.0656 -58.1598 64.6711 4.98685 98.2898L13.0935 102.435C62.1602 128.685 129.574 164.145 187.174 164.145C192.72 164.145 197.84 163.685 202.96 163.224C205.094 162.764 207.227 162.764 209.36 162.303C229.84 157.237 249.467 142.04 259.28 123.158C270.8 100.132 263.974 76.6449 256.72 54.079C255.867 51.7763 255.44 49.9342 255.014 47.6316C249.04 27.3683 243.067 6.18393 238.374 -15.4609H237.094C241.787 7.10499 247.76 28.2893 253.734 48.5526Z" fill="white"/><path d="M502.906 -14.5395C502.906 -15 502.906 -15 502.906 -14.5395L501.199 -15C498.639 -11.7763 495.652 -8.55259 493.946 -3.9473C488.826 9.40804 490.106 23.6844 491.812 37.0398C492.666 44.4083 493.519 52.2372 493.092 60.0662C492.666 72.04 490.106 84.4743 487.972 96.448C486.266 106.58 484.132 116.711 483.279 126.843C477.732 187.633 482.852 242.896 498.212 290.331C501.199 300.002 513.572 315.66 526.799 331.778C543.439 352.502 560.932 373.687 561.359 386.581C561.359 389.345 560.932 391.647 559.226 393.489C554.532 398.555 542.586 399.476 523.386 396.252C509.306 393.95 495.652 387.502 482.426 381.516C474.746 377.831 467.066 374.147 458.959 371.384C456.826 370.463 454.266 369.542 452.132 369.081C423.972 358.95 384.719 345.134 379.172 320.726C376.612 309.212 381.732 295.857 394.532 281.581C415.012 258.554 435.919 235.067 450.426 199.146C464.079 164.606 479.866 97.8296 473.892 61.4478C472.612 54.0794 469.626 49.0135 467.066 43.9477C463.226 37.5003 459.812 31.5134 461.519 20.4607C462.799 12.1712 465.786 7.56593 468.346 3.42116C471.332 -1.64466 474.319 -6.24995 473.466 -15H472.186C473.039 -6.71048 470.479 -2.56571 467.492 2.50011C464.932 6.64487 461.946 11.7107 460.666 20.4607C458.959 31.974 462.799 38.4214 466.639 45.3293C469.199 49.9346 472.186 55.0004 473.466 61.9084C479.439 97.8296 463.652 164.606 449.999 198.686C435.919 234.146 415.012 257.633 394.532 280.66C381.306 295.397 375.759 309.212 378.746 321.186C384.292 346.055 423.546 360.331 452.559 370.463C455.119 371.384 457.252 372.305 459.386 372.765C467.066 375.529 475.172 379.213 482.852 382.897C496.079 388.884 509.732 395.331 523.812 398.095C531.492 399.476 537.892 399.937 543.439 399.937C552.399 399.937 557.946 398.095 560.932 394.871C562.639 393.029 563.492 390.266 563.492 387.042C562.639 373.687 545.146 352.042 528.506 331.318C515.706 315.199 503.332 300.002 500.346 290.331C484.986 242.896 480.292 188.093 485.839 127.303C486.692 117.172 488.399 107.04 490.532 97.3691C492.666 85.3953 494.799 72.9611 495.652 60.5268C496.079 52.6978 495.226 44.8688 494.372 37.5003C492.666 23.6844 491.386 10.3291 496.506 -2.56571C496.932 -8.09206 499.919 -11.7763 502.906 -14.5395Z" fill="white"/><path d="M362.96 10.7896C389.84 101.514 418 195.462 312.613 261.317C296.827 270.989 279.333 278.357 260.133 282.962C244.773 286.647 228.133 288.489 210.64 288.489C67.7067 288.028 -110.64 173.817 -222 100.593V104.277C-110.64 177.501 67.28 291.252 210.213 291.252C228.133 291.252 244.773 289.41 260.56 285.726C279.76 281.12 298.107 273.752 313.893 264.081C421.413 196.843 393.253 101.974 365.947 9.86857C363.387 1.57905 360.827 -6.71048 358.693 -15H355.707C357.84 -6.24995 360.4 2.03958 362.96 10.7896Z" fill="white"/><path d="M642.426 1599.62C699.173 1592.71 759.759 1521.79 760.613 1461.92C761.893 1369.81 712.826 1296.59 665.466 1225.67C657.359 1213.69 649.253 1201.26 641.146 1188.82L636.453 1181.45C614.266 1146.91 589.093 1107.31 580.559 1064.94C573.733 1029.02 563.066 945.203 574.586 916.19C583.119 895.005 607.013 883.032 630.479 871.058C646.693 862.768 662.053 855.4 672.719 844.808L673.146 844.347C709.839 808.426 709.839 808.426 734.586 807.505C742.266 807.044 751.653 807.044 764.879 805.663C782.799 803.821 793.039 801.057 800.719 799.215C805.413 797.834 809.253 796.913 812.239 796.913C819.919 796.913 826.319 802.9 847.653 822.242C910.799 879.808 909.519 979.743 908.239 1076.45C906.959 1198.03 905.253 1324.22 1032.83 1363.82C1051.17 1369.35 1069.09 1372.57 1086.16 1372.57C1133.95 1372.57 1174.91 1349.55 1204.35 1305.8C1247.44 1241.78 1258.96 1141.39 1232.93 1056.19C1172.77 860.005 1029.41 748.097 874.959 641.254C734.586 544.082 601.039 517.372 487.119 499.871C479.013 498.49 470.906 498.029 463.653 498.029C417.146 498.029 395.386 523.358 367.653 555.595C356.986 568.03 345.893 580.464 332.239 593.819C316.453 608.556 296.399 618.688 277.199 628.82C245.626 644.938 216.186 660.136 203.813 693.754C177.786 765.136 241.786 821.321 298.106 870.597C324.133 893.163 348.879 914.808 363.386 936.453C420.986 1021.65 403.493 1165.8 351.439 1246.39C335.226 1271.72 304.079 1303.03 271.226 1335.73C216.613 1390.53 154.746 1452.25 143.653 1504.75C138.533 1529.15 139.813 1546.19 147.919 1557.25C154.319 1566 165.839 1570.6 182.053 1570.6C208.933 1570.6 247.333 1558.63 287.866 1546.19C337.786 1530.54 394.106 1513.04 441.893 1513.04C464.933 1513.04 483.706 1516.72 499.919 1525.01C518.266 1534.22 534.053 1547.11 549.413 1560.01C574.586 1581.19 598.053 1601 631.333 1601C635.173 1600.08 638.586 1600.08 642.426 1599.62ZM500.773 1522.25C484.559 1514.42 464.933 1510.27 441.893 1510.27C393.679 1510.27 336.933 1527.77 287.013 1543.43C246.479 1555.86 208.079 1567.84 181.626 1567.84C165.839 1567.84 155.599 1563.69 149.199 1555.4C141.519 1545.27 140.666 1528.69 145.359 1505.21C156.026 1453.63 217.893 1391.92 272.079 1337.57C304.933 1304.42 336.506 1273.1 352.719 1247.77C405.199 1166.26 422.266 1021.19 364.666 935.071C350.159 913.427 325.413 891.782 298.959 868.755C243.066 819.939 179.493 764.676 205.093 694.675C217.039 661.978 246.479 646.78 277.626 631.122C297.253 620.991 317.306 610.859 333.093 595.661C346.746 582.767 357.839 569.872 368.506 557.438C395.813 525.661 417.573 500.792 463.226 500.792C470.479 500.792 478.159 501.253 486.266 502.635C600.186 520.135 733.733 546.845 873.253 643.556C1027.28 749.939 1170.21 861.847 1229.95 1057.57C1255.55 1141.85 1244.45 1241.32 1201.79 1304.88C1172.77 1348.17 1132.67 1370.73 1085.31 1370.73C1068.67 1370.73 1050.75 1367.97 1032.83 1361.98C976.079 1344.48 940.666 1308.1 923.599 1250.99C908.239 1199.88 909.093 1137.24 909.946 1076.45C911.226 979.282 912.079 878.426 848.506 820.4C818.213 792.768 817.359 792.307 799.866 796.913C792.186 798.755 781.946 801.518 764.026 803.36C750.799 804.742 741.413 805.202 734.159 805.202C708.559 806.123 708.559 806.123 671.013 842.505L670.586 842.966C659.919 853.097 644.986 860.926 629.199 868.755C605.306 880.729 580.986 893.163 572.026 914.808C560.079 944.282 570.746 1028.56 577.999 1064.94C586.106 1107.77 611.706 1147.38 633.893 1181.92L638.586 1189.28C646.266 1201.72 654.799 1214.15 662.906 1226.13C710.266 1297.05 758.906 1369.81 757.626 1461C756.773 1519.94 697.039 1589.48 641.573 1596.39C638.159 1596.85 634.319 1596.85 630.906 1596.85C598.053 1596.85 575.013 1577.05 550.266 1556.33C535.333 1544.81 519.546 1531.46 500.773 1522.25Z" fill="white"/><path d="M1184.72 9.40805C1191.55 33.8161 1238.91 47.1714 1269.2 47.1714C1312.72 47.1714 1357.95 37.9608 1406.16 28.2897C1454.8 18.1581 1505.15 8.02646 1554.21 8.02646C1607.97 8.02646 1652.77 20.4607 1691.6 45.7898C1693.73 47.1714 1695.87 48.553 1698 49.9346V47.1714C1696.29 45.7898 1694.59 44.8688 1692.88 43.4872C1653.63 17.6976 1608.4 5.26328 1554.21 5.26328C1505.15 5.26328 1454.8 15.3949 1406.16 25.5266C1357.95 35.1977 1312.72 44.4083 1269.63 44.4083C1239.33 44.4083 1193.25 30.5924 1186.85 8.48699C1184.72 1.11852 1187.28 -6.71048 1194.11 -15H1191.12C1184.72 -6.71048 1182.59 1.57905 1184.72 9.40805Z" fill="white"/><path d="M1544.4 168.752C1538.85 168.752 1533.31 168.752 1528.19 168.752C1523.07 168.752 1517.95 168.752 1512.83 168.752C1483.81 168.752 1460.77 170.594 1435.17 178.884C1421.95 183.489 1409.15 189.936 1397.2 196.844C1377.15 207.897 1357.95 218.489 1334.91 218.489C1331.07 218.489 1327.23 218.029 1323.39 217.568C1306.75 214.805 1293.95 204.213 1281.57 194.081C1267.92 182.568 1255.12 171.515 1236.77 171.515C1235.07 171.515 1233.36 171.515 1231.65 171.976C1220.56 173.357 1202.64 183.949 1185.15 194.542C1174.05 201.45 1163.39 207.897 1156.13 210.66C1145.47 214.805 1136.93 217.108 1130.96 218.489C1113.04 223.094 1110.91 224.936 1101.95 260.397C1099.39 270.068 1097.68 279.279 1095.97 288.49C1089.57 321.648 1084.88 347.437 1052.03 372.766C1029.84 389.345 1002.11 397.635 966.694 397.635C931.708 397.635 895.014 389.806 862.587 382.898C845.521 379.214 829.734 375.99 817.788 374.608C810.961 373.687 800.294 373.227 789.201 373.227C758.054 373.227 721.361 385.661 718.801 403.161C717.521 411.451 723.494 424.346 759.761 436.78L763.601 438.161C900.561 485.596 995.708 547.307 1092.99 651.386C1119.87 679.939 1140.35 693.295 1157.41 693.295C1161.25 693.295 1165.52 692.374 1168.93 690.992C1187.28 683.623 1200.51 658.755 1215.87 630.202C1223.97 615.465 1232.93 598.426 1243.6 582.307C1295.23 504.017 1369.04 446.451 1451.81 421.122C1476.13 413.753 1500.03 409.609 1522.64 409.609C1596.45 409.609 1648.51 448.754 1697.57 488.82V486.057C1648.51 445.99 1596.45 407.767 1522.64 407.767C1500.03 407.767 1475.71 411.451 1451.39 419.28C1368.19 445.069 1293.95 502.636 1241.89 581.386C1231.23 597.505 1222.27 614.544 1214.16 629.281C1198.8 657.834 1186 682.242 1168.51 689.15C1165.09 690.531 1161.25 691.452 1157.41 691.452C1140.77 691.452 1120.72 678.097 1094.69 650.005C997.414 545.465 901.841 483.754 764.454 435.859L760.614 434.477C733.734 425.267 719.654 414.214 721.361 403.622C723.494 388.885 755.921 375.53 789.628 375.53C800.294 375.53 810.961 375.99 817.788 376.911C829.734 378.293 845.521 381.516 862.587 385.201C895.014 392.109 932.134 400.398 967.121 400.398C1002.96 400.398 1031.55 392.109 1053.73 375.069C1087.01 349.74 1092.13 323.029 1098.53 289.411C1100.24 280.661 1101.95 271.45 1104.51 261.779C1113.04 226.318 1114.75 225.858 1131.81 221.252C1137.79 219.871 1145.89 217.568 1156.99 213.423C1164.67 210.2 1175.33 203.752 1186.43 197.305C1202.64 187.173 1221.41 176.12 1232.08 174.739C1233.79 174.739 1235.49 174.278 1236.77 174.278C1254.27 174.278 1267.07 184.87 1280.29 196.384C1292.67 206.976 1305.47 218.029 1322.96 220.792C1326.8 221.252 1330.64 221.713 1334.48 221.713C1357.95 221.713 1378 210.66 1397.63 200.068C1409.57 193.621 1421.95 186.713 1435.17 182.107C1460.35 173.818 1483.39 171.976 1512.4 171.976C1517.52 171.976 1522.64 171.976 1527.76 171.976C1533.31 171.976 1538.43 171.976 1544.4 171.976C1570.43 171.976 1593.89 175.199 1615.65 182.107C1643.39 190.857 1670.69 202.371 1697.57 216.647V213.884C1670.69 200.068 1643.39 188.555 1616.08 179.805C1594.32 172.436 1570.85 168.752 1544.4 168.752Z" fill="white"/><path d="M1138.21 56.3814C1174.91 81.25 1218 93.6843 1269.63 93.6843C1316.99 93.6843 1366.48 83.5527 1414.69 73.8815C1461.2 64.2104 1509.41 54.5393 1554.64 54.5393C1600.29 54.5393 1637.84 64.671 1669.84 85.8553C1675.39 89.5395 1681.36 93.2238 1687.33 97.3685C1691.17 99.6712 1694.59 101.974 1698.43 104.737V101.053C1695.01 98.7501 1692.03 96.908 1689.04 94.6054C1683.07 90.4606 1677.09 86.7764 1671.55 83.0921C1639.12 61.9078 1600.72 51.3156 1554.64 51.3156C1509.41 51.3156 1461.2 60.9867 1414.27 70.6579C1366.48 80.329 1316.99 90.4606 1270.05 90.4606C1219.28 90.4606 1176.61 78.4868 1140.35 54.0788C1116.03 37.4998 1104.08 19.9996 1105.36 2.49954C1105.79 -3.02681 1107.49 -9.01369 1110.48 -14.54H1107.07C1104.51 -9.01369 1102.8 -3.48734 1102.37 2.03901C1100.67 20.9207 1112.61 39.3419 1138.21 56.3814Z" fill="white"/><path d="M1544.4 215.266C1508.56 215.266 1470.16 222.174 1430.05 229.542C1384.4 237.832 1337.47 246.582 1287.12 246.582C1283.71 246.582 1279.87 246.582 1276.45 246.582C1258.96 246.121 1244.45 242.897 1231.23 240.134C1220.13 237.832 1210.32 235.529 1200.93 235.529C1178.75 235.529 1162.53 247.963 1144.61 278.819C1136.08 293.556 1129.68 311.516 1123.71 328.556C1113.04 358.951 1101.95 390.267 1077.63 409.148C1069.09 415.596 1052.88 420.662 1035.81 425.727C1005.95 434.938 972.24 445.53 967.546 467.175C962 494.346 1013.63 531.649 1041.36 551.912C1046.48 555.597 1051.17 558.82 1054.16 561.123C1087.01 586.913 1113.89 604.413 1139.49 604.413C1142.91 604.413 1146.32 603.952 1149.73 603.492C1170.21 599.347 1188.99 583.689 1208.19 554.215C1265.36 467.175 1347.71 403.622 1439.87 375.069C1468.03 366.319 1496.19 361.714 1522.64 361.714C1596.45 361.714 1650.64 393.951 1697.57 429.412V427.57C1650.64 392.109 1596.45 359.872 1522.64 359.872C1495.76 359.872 1468.03 364.477 1439.44 373.227C1346.85 401.78 1264.51 465.793 1207.33 552.833C1188.13 582.307 1169.79 597.505 1149.73 601.65C1146.32 602.11 1142.91 602.571 1139.49 602.571C1114.32 602.571 1087.44 585.531 1055.01 559.741C1052.03 557.439 1047.76 554.215 1042.21 550.531C1014.48 530.728 963.28 493.886 968.826 467.636C973.093 446.912 1006.8 436.32 1036.24 427.109C1053.31 422.043 1069.52 416.977 1078.05 410.069C1102.8 391.188 1113.89 359.411 1124.56 329.016C1130.53 311.977 1136.93 294.016 1145.47 279.279C1162.96 248.884 1179.17 236.45 1200.51 236.45C1209.89 236.45 1219.28 238.292 1230.37 241.055C1243.6 243.818 1258.11 247.042 1275.6 247.503C1279.01 247.503 1282.85 247.503 1286.27 247.503C1336.61 247.503 1383.55 238.753 1429.2 230.463C1469.73 223.095 1507.71 216.187 1543.55 216.187C1565.73 216.187 1585.36 218.95 1603.28 224.476C1634.43 234.147 1665.15 248.424 1697.15 265.924V264.542C1665.57 247.503 1634.85 233.226 1603.71 223.555C1586.64 218.029 1567.01 215.266 1544.4 215.266Z" fill="white"/><path d="M571.172 -15H568.186C561.786 9.86857 557.092 37.0398 554.106 66.9742C549.412 119.014 545.146 186.712 554.959 252.567C562.212 300.462 576.719 321.647 601.892 321.647C618.106 321.647 636.452 313.357 658.212 303.686C673.146 296.778 688.932 289.87 705.146 284.804C706.852 284.344 708.132 283.883 709.839 283.423C757.199 269.607 810.532 267.765 866.852 277.896C882.212 280.66 897.572 285.265 912.079 289.41C933.839 295.857 956.026 302.765 979.066 303.686C991.439 304.147 999.972 302.765 1006.37 299.541C1024.72 289.87 1015.76 265.462 1006.37 239.673C1000.83 224.475 995.279 208.817 993.999 194.541C988.879 119.474 1027.71 50.8557 1079.33 -14.5395H1075.49C1024.29 50.8557 986.319 119.474 991.012 194.541C991.866 209.278 997.839 225.396 1003.39 240.594C1012.77 265.923 1020.45 288.028 1004.67 296.318C999.119 299.541 990.586 300.462 978.639 300.002C956.026 299.081 933.839 292.173 912.506 285.726C897.572 281.12 882.212 276.515 866.852 274.212C810.106 264.081 756.346 266.383 708.559 280.199C706.852 280.66 705.146 281.12 703.866 281.581C687.226 286.647 671.439 293.554 656.506 300.462C635.172 310.134 616.826 318.423 601.466 318.423C577.999 318.423 564.772 298.16 557.519 252.107C547.706 186.712 551.972 119.014 556.666 67.4347C559.652 37.0398 564.346 9.86857 571.172 -15Z" fill="white"/><path d="M1544.4 247.501C1511.12 247.501 1474 254.409 1434.75 261.317C1387.81 270.067 1339.6 278.817 1287.12 278.817C1283.28 278.817 1279.44 278.817 1275.6 278.817C1272.61 278.817 1269.2 278.817 1266.21 278.356C1258.11 277.896 1250.85 277.896 1243.6 277.896C1198.37 277.896 1170.21 288.028 1151.44 340.528C1139.92 373.686 1126.27 411.449 1094.69 435.857C1085.73 442.765 1076.77 448.752 1068.67 453.818C1050.32 465.792 1035.81 475.463 1034.96 488.358C1034.53 500.331 1045.63 515.068 1071.65 535.332C1096.4 555.134 1116.88 564.345 1133.95 564.345C1135.65 564.345 1136.93 564.345 1138.64 564.345C1163.39 562.042 1180.45 539.476 1201.36 511.384C1211.17 498.489 1221.84 484.213 1234.64 470.397C1290.11 410.528 1357.95 366.778 1431.76 344.212C1462.91 335.002 1493.63 330.396 1523.07 330.396C1595.6 330.396 1651.49 358.949 1698 391.647V389.804C1651.49 357.107 1595.6 329.015 1523.07 329.015C1493.63 329.015 1462.91 334.08 1431.76 343.291C1357.95 365.857 1289.68 409.607 1234.21 469.937C1221.41 483.752 1210.32 498.489 1200.93 510.924C1180.03 539.016 1163.39 560.661 1139.07 563.424C1137.79 563.424 1136.08 563.424 1134.37 563.424C1117.31 563.424 1097.25 553.753 1072.93 534.411C1047.33 514.147 1036.24 500.331 1036.67 488.358C1037.09 475.923 1051.6 466.713 1069.52 454.739C1077.63 449.673 1086.59 443.686 1095.55 436.778C1127.55 412.37 1141.2 374.147 1152.72 340.988C1171.07 288.949 1198.8 279.277 1243.6 279.277C1250.85 279.277 1258.53 279.277 1266.21 279.738C1269.2 279.738 1272.19 279.738 1275.6 280.199C1279.44 280.199 1283.28 280.199 1287.12 280.199C1340.03 280.199 1388.24 271.448 1435.17 262.698C1474.43 255.33 1511.12 248.883 1544.4 248.883C1563.6 248.883 1580.67 251.185 1596.03 255.79C1629.31 265.922 1663.01 282.501 1698 302.304V300.922C1663.01 281.58 1629.31 265.001 1596.45 254.869C1581.09 249.804 1564.03 247.501 1544.4 247.501Z" fill="white"/><path d="M729.467 116.711C735.013 116.711 741.84 115.79 749.52 113.948C757.2 112.106 764.88 110.264 771.707 109.343C783.227 107.501 794.32 107.04 804.133 106.58C815.227 105.659 825.467 102.435 834.853 96.448C874.533 71.5795 891.173 20.0002 896.293 -0.723599C898 -5.78942 899.28 -10.3947 900.133 -15H898.853C897.573 -10.8552 896.293 -6.24995 895.013 -1.18413C889.893 19.5397 873.253 70.1979 834 95.0665C824.613 101.053 814.8 104.277 803.707 104.738C793.893 105.198 782.8 106.119 771.28 107.501C764.453 108.422 757.2 110.264 749.093 112.106C741.413 113.948 734.587 114.869 729.04 114.869C719.653 114.869 712.827 112.106 708.987 107.04C703.013 99.2112 702.16 84.9348 706.427 62.3689L707.28 58.6847C712.827 27.3687 722.64 3.42116 738 -15H736.293C721.36 3.88169 711.547 27.8292 706 58.6847L705.147 62.3689C700.88 85.3953 701.733 100.132 708.133 108.422C712.827 113.948 719.653 116.711 729.467 116.711Z" fill="white"/><path d="M1544.4 279.279C1513.68 279.279 1477.84 285.727 1439.87 292.635C1392.08 301.385 1342.16 310.595 1287.12 310.595C1283.28 310.595 1279.01 310.595 1275.17 310.595L1265.79 310.135C1258.11 310.135 1250.85 309.674 1244.03 309.674C1184.29 309.674 1181.31 345.135 1178.32 382.898C1176.61 403.622 1174.91 424.807 1164.24 442.767C1160.4 449.215 1150.59 457.504 1139.92 466.254C1117.31 484.675 1091.28 505.399 1103.65 525.202C1108.77 533.491 1115.17 538.097 1122.85 538.097C1126.69 538.097 1131.39 536.715 1135.65 534.412C1155.71 523.36 1177.47 489.741 1194.53 463.03C1204.35 447.833 1212.88 434.938 1217.57 431.714C1222.27 428.491 1227.81 428.03 1232.51 428.03C1234.21 428.03 1236.35 428.03 1238.05 428.03C1239.76 428.03 1241.89 428.03 1243.6 428.03C1250.43 428.03 1258.11 427.109 1264.93 420.662C1273.04 412.833 1273.89 402.241 1275.17 392.569C1276.03 383.819 1276.88 375.069 1282.43 368.161C1299.07 346.517 1357.52 331.78 1395.92 321.648C1407.44 318.885 1417.25 316.122 1424.51 313.819C1458.21 303.227 1491.49 298.161 1523.49 298.161C1594.75 298.161 1651.92 323.49 1698.43 353.424V350.661C1651.92 320.727 1594.75 295.398 1523.49 295.398C1491.07 295.398 1457.79 300.924 1423.65 311.056C1416.4 313.358 1406.59 315.661 1395.07 318.885C1353.68 329.477 1297.36 343.753 1280.29 365.859C1274.32 373.688 1273.47 382.898 1272.61 391.648C1271.76 401.78 1270.91 410.991 1263.23 418.359C1257.25 424.346 1250 425.267 1243.6 425.267C1241.89 425.267 1239.76 425.267 1238.05 425.267C1236.35 425.267 1234.21 425.267 1232.51 425.267C1227.39 425.267 1221.84 425.728 1216.29 428.951C1211.17 432.175 1203.07 445.07 1192.83 460.728C1176.61 486.057 1154.43 520.136 1134.37 531.189C1122.43 538.097 1113.04 535.334 1105.36 522.899C1094.27 504.939 1119.01 485.136 1141.2 467.175C1152.72 457.965 1162.11 450.136 1166.37 443.228C1177.04 424.806 1178.75 403.162 1180.88 382.438C1183.87 344.214 1186.85 311.516 1244.45 311.516C1251.28 311.516 1258.53 311.516 1266.21 311.977L1275.6 312.437C1279.44 312.437 1283.71 312.437 1287.55 312.437C1343.01 312.437 1392.51 303.227 1440.72 294.477C1478.69 287.569 1514.11 281.121 1544.83 281.121C1561.04 281.121 1575.55 282.964 1587.92 287.108C1622.48 298.161 1659.6 317.503 1698 339.609V336.845C1659.6 315.201 1623.33 295.858 1588.35 285.266C1575.55 281.582 1561.04 279.279 1544.4 279.279Z" fill="white"/><path d="M737.573 68.3552C740.986 75.2631 747.813 78.9474 758.48 78.9474C761.467 78.9474 764.453 78.4868 767.44 78.0263C779.813 76.1842 791.76 75.2631 802 74.8026C804.986 74.8026 807.973 73.8815 810.533 73.421C813.52 72.5 816.507 71.1184 819.493 69.2762C842.533 54.5393 869.84 11.7101 870.693 -14.54H868.56C867.707 10.7891 840.4 53.6183 818.213 67.4341C815.653 69.2763 812.667 70.1973 809.68 71.1184C807.12 72.0394 804.133 72.5 801.147 72.5C790.907 72.9605 778.96 73.8815 766.586 75.7237C751.653 78.0263 742.267 74.8026 738.427 67.4341C733.307 56.842 739.28 37.0392 753.786 14.9338C761.466 2.96007 772.133 -6.71104 786.213 -14.54H781.947C769.147 -6.71104 759.333 2.49954 752.08 13.5522C738 36.1182 732.453 56.842 737.573 68.3552Z" fill="white"/><path d="M638.16 1659.94C701.733 1652.12 777.253 1570.6 797.733 1508.43C833.147 1400.21 770.427 1313.17 709.84 1228.89C651.387 1147.84 596.347 1070.93 623.227 977.441C646.693 895.927 722.213 852.177 781.52 852.177C813.52 852.177 840.827 864.611 859.173 886.717C880.933 912.967 889.467 953.033 883.92 1002.31C864.72 1171.78 859.173 1357.38 1034.53 1412.18C1054.59 1418.63 1074.64 1421.85 1093.41 1421.85C1167.23 1421.85 1214.16 1376.26 1240.61 1338.03C1291.39 1264.81 1308.88 1154.74 1284.56 1064.94C1263.65 988.493 1222.69 914.809 1159.12 838.821C1064.83 725.992 936.4 628.82 766.16 542.241L758.907 538.556C687.227 502.175 613.413 464.411 535.76 443.687C531.067 442.306 525.947 440.924 520.4 439.543C496.507 432.635 466.213 423.885 440.613 423.885C430.373 423.885 421.413 425.266 414.16 428.029C403.067 432.174 396.667 440.464 390.693 448.293C386 454.28 381.733 460.267 374.907 464.872C370.64 467.635 362.107 471.319 353.147 475.003C338.64 480.99 323.707 487.438 319.013 492.964C310.053 504.477 312.613 511.385 314.747 518.293C316.453 522.899 318.16 527.504 316.027 534.412L314.32 539.938C301.52 580.925 301.52 580.925 271.653 590.136C266.107 591.978 258.853 594.28 250.32 597.044C225.573 605.333 215.76 618.689 205.947 631.123C198.267 640.794 191.44 650.005 178.213 657.373C177.787 657.373 177.36 657.373 176.933 657.373C161.573 657.373 45.0933 665.663 36.1333 696.518C33.5733 704.807 39.12 714.018 51.4933 723.229C67.28 735.202 79.6533 736.584 87.3333 736.584C91.1733 736.584 94.5866 736.123 97.5733 735.663C100.56 735.202 103.12 735.202 105.68 735.202C115.067 735.202 124.453 737.966 137.68 772.505C140.667 780.795 143.227 788.163 145.36 793.69C155.6 822.242 155.6 822.703 181.2 834.216C187.6 836.979 195.28 840.664 205.52 845.729C238.373 862.308 245.2 880.73 253.733 904.217C258.427 916.651 263.547 930.927 272.933 946.585C283.173 963.625 295.547 977.441 307.067 990.336C327.973 1013.82 347.6 1035.93 354 1072.77C364.667 1136.78 332.667 1198.03 296.4 1254.68C278.907 1282.31 242.64 1314.09 203.813 1347.71C138.533 1405.27 64.72 1470.21 64.2933 1530.54C64.2933 1565.08 72.4 1591.33 88.6133 1608.83C106.533 1628.17 133.413 1637.38 170.96 1637.38C225.573 1637.38 292.987 1617.58 352.293 1600.08C399.227 1586.26 439.333 1574.29 465.36 1574.29C471.333 1574.29 476.027 1574.75 479.867 1576.13C504.613 1583.96 524.667 1601 543.44 1617.58C568.613 1639.22 592.507 1659.94 627.067 1659.94C630.907 1660.87 634.747 1660.41 638.16 1659.94ZM481.147 1573.37C476.88 1571.98 471.76 1571.52 465.787 1571.52C439.76 1571.52 399.227 1583.5 352.293 1597.31C292.987 1614.81 226 1634.62 171.813 1634.62C134.693 1634.62 108.667 1625.41 91.6 1606.98C75.8133 1589.94 68.1333 1564.15 68.1333 1531C68.56 1472.05 141.947 1407.57 206.373 1350.93C244.773 1316.85 281.467 1285.07 299.387 1256.98C336.08 1199.88 368.507 1138.17 357.84 1072.77C351.44 1035.01 331.387 1012.44 310.053 988.493C298.533 975.599 286.16 961.783 275.92 945.204C266.533 929.546 261.413 915.73 256.72 903.296C247.76 878.887 240.933 860.006 206.8 842.966C196.56 837.9 188.88 834.216 182.48 831.453C157.733 819.94 157.733 819.94 147.92 792.769C145.787 786.782 143.227 779.874 140.24 771.584C127.867 738.426 118.053 731.979 105.68 731.979C103.12 731.979 100.133 732.439 97.5733 732.439C94.16 732.9 91.1733 732.9 87.3333 732.9C79.2266 732.9 68.56 731.518 53.2 720.005C41.68 711.255 36.9866 703.426 38.6933 696.518C46.3733 669.807 155.173 659.676 176.507 659.676C176.933 659.676 177.36 659.676 177.36 659.676L177.787 658.294L178.64 659.676C192.72 651.847 200.4 642.176 208.08 632.504C217.893 619.61 227.28 607.636 251.173 599.346C259.707 596.583 266.96 594.28 272.507 592.438C303.653 582.767 304.08 582.307 317.307 539.938L319.013 534.412C321.573 526.583 319.44 521.056 317.733 515.991C315.6 509.543 313.467 504.017 321.573 494.346C325.84 488.819 341.2 482.832 354.427 477.306C363.387 473.622 371.92 469.938 376.613 467.174C383.867 462.569 388.56 456.122 393.253 450.135C399.227 442.306 405.2 434.937 415.44 430.793C422.267 428.03 430.8 426.648 441.04 426.648C466.213 426.648 496.08 435.398 519.973 441.845C525.52 443.227 530.64 445.069 535.333 445.99C612.987 466.714 686.8 504.477 758.053 540.859L765.307 544.543C935.12 631.123 1063.12 727.834 1156.99 840.203C1220.13 915.73 1261.09 989.414 1281.57 1064.94C1305.89 1153.82 1288.4 1262.51 1238.05 1335.27C1212.03 1373.04 1165.52 1417.71 1092.99 1417.71C1074.21 1417.71 1054.59 1414.48 1034.96 1408.5C862.16 1354.61 867.707 1170.4 886.48 1002.31C892.027 952.112 883.493 911.125 861.307 883.953C842.533 860.927 813.947 848.493 781.52 848.493C721.36 848.493 644.56 893.164 620.667 976.059C593.36 1070.93 651.813 1151.98 708.133 1230.27C768.293 1313.63 830.16 1400.21 795.6 1506.59C775.547 1567.84 701.307 1648.43 638.587 1655.8C635.173 1656.26 631.76 1656.26 628.347 1656.26C595.067 1656.26 571.6 1636 546.853 1614.35C526.8 1599.16 506.747 1581.65 481.147 1573.37Z" fill="white"/><path d="M711.546 152.634C726.053 152.634 742.266 148.95 756.346 145.266C763.6 143.424 770.426 142.042 775.973 141.121C786.213 139.739 796.453 138.818 805.839 138.358C825.893 136.976 845.093 136.055 860.026 126.845C872.4 119.476 880.933 107.042 887.333 89.0811C898.426 56.8441 911.653 20.9228 930.853 -14.9985H929.573C910.373 20.4623 897.146 56.3836 886.053 88.6206C880.08 106.121 871.546 118.094 859.6 125.463C844.666 134.674 825.893 135.595 805.839 136.976C796.026 137.437 786.213 138.358 775.546 139.739C770 140.66 763.173 142.042 755.919 143.884C741.839 147.108 726.053 151.253 711.546 151.253C697.466 151.253 687.653 147.568 680.826 139.739C665.04 121.318 673.146 78.9495 677.413 55.923L678.266 52.2388C682.96 25.9886 690.64 3.88324 701.733 -15.459H700.026C689.36 3.42271 681.679 25.9886 676.986 51.7783L676.133 55.4625C671.866 78.489 663.759 121.318 679.973 140.2C686.799 148.95 697.04 152.634 711.546 152.634Z" fill="white"/><path d="M1041.79 -15H1038.8C1033.68 -9.01312 1028.99 -3.48677 1025.57 1.57905C978.64 70.6584 957.733 134.211 961.573 196.383C963.28 220.33 960.293 236.449 953.04 245.199C948.346 250.725 941.946 253.488 932.986 253.488C920.613 253.488 905.253 248.423 889.04 242.896C874.533 237.83 859.173 232.765 844.666 231.383C834 230.001 822.906 229.541 811.813 229.541C775.546 229.541 741.413 235.528 705.146 242.436C699.173 243.357 692.773 244.738 686.8 245.659H686.373C673.573 247.962 659.066 250.265 644.986 250.265C618.533 250.265 601.466 240.594 592.933 221.251C575.44 180.264 580.133 130.988 584.4 87.698C584.826 81.7111 585.68 76.1848 586.106 70.1979C589.093 38.4214 594.213 10.3291 601.466 -15H599.333C592.08 10.3291 586.96 38.4214 583.973 70.1979C583.546 75.7242 582.693 81.7111 582.266 87.698C578 131.448 572.88 181.185 590.8 222.633C599.76 243.357 617.253 253.028 644.986 253.028C659.066 253.028 674 250.265 686.8 248.423H687.226C693.2 247.502 699.6 246.12 705.573 245.199C741.84 238.752 775.973 232.304 812.24 232.304C823.76 232.304 834.426 232.765 845.093 234.146C859.173 235.988 874.533 241.054 889.04 245.659C905.253 251.186 921.039 256.252 933.413 256.252C942.799 256.252 950.053 253.488 955.173 247.041C962.853 237.83 965.84 221.251 964.133 196.383C959.866 134.672 980.773 71.5795 1027.71 2.96063C1031.12 -2.10519 1036.24 -8.55259 1041.79 -15Z" fill="white"/><path d="M1028.13 334.082C1013.63 345.135 993.999 350.661 967.546 350.661C936.826 350.661 902.266 343.293 871.546 336.845C853.626 333.161 836.56 329.477 822.906 327.635C816.08 326.714 797.733 324.872 775.546 324.872C734.16 324.872 680.826 330.859 662.906 359.872C655.226 372.306 654.8 388.425 662.053 406.846C665.466 415.596 674 420.201 682.533 424.806C689.36 428.491 696.186 432.175 700.026 437.701C704.72 444.149 707.28 453.82 709.84 462.57C713.253 474.544 716.666 486.978 724.773 494.346C734.586 503.557 745.68 507.702 759.333 507.702C768.72 507.702 778.533 505.86 787.92 503.557C797.306 501.715 806.693 499.412 815.653 499.412C824.613 499.412 832.293 501.254 839.12 505.399C856.186 514.61 863.013 527.504 870.266 539.939C879.226 556.057 887.76 571.255 915.92 578.163C974.373 592.9 990.586 608.558 1029.41 645.86C1034.53 650.466 1039.65 655.992 1045.63 661.518C1059.71 674.874 1069.95 690.071 1079.76 704.348C1088.72 717.242 1097.68 731.058 1109.63 743.032C1124.13 758.23 1137.79 764.677 1151.01 771.585C1168.51 780.335 1185.57 788.624 1200.51 816.717L1203.07 821.322C1222.27 856.783 1241.47 889.941 1253.41 889.941C1255.12 889.941 1256.83 889.02 1258.11 887.638C1262.37 882.572 1263.65 869.217 1261.52 846.651C1260.24 833.296 1251.71 821.783 1243.17 810.269C1233.79 797.835 1225.25 786.322 1225.68 773.427C1226.11 758.23 1235.07 750.401 1244.03 742.572C1250.85 736.585 1257.68 730.598 1261.52 721.387C1271.33 698.821 1273.47 678.558 1276.03 658.755C1279.01 631.584 1282 605.794 1304.61 576.781C1345.15 524.741 1401.89 485.136 1464.19 465.794C1485.09 459.346 1504.29 456.122 1523.07 456.122C1587.07 456.122 1632.72 493.425 1681.36 533.491C1686.91 538.097 1692.45 542.702 1698 546.847V542.241C1692.88 538.097 1688.19 533.952 1683.07 530.268C1634 490.202 1587.92 452.438 1523.07 452.438C1503.87 452.438 1484.24 455.662 1463.33 462.109C1400.19 481.452 1343.01 521.518 1302.05 574.018C1279.01 603.952 1276.03 630.202 1272.61 657.834C1270.48 677.176 1267.92 696.979 1258.53 719.085C1254.69 727.835 1248.29 733.822 1241.89 739.348C1232.51 747.637 1223.12 755.927 1222.27 772.506C1221.84 786.782 1231.23 799.217 1240.19 811.651C1248.29 822.704 1256.83 834.217 1258.11 846.191C1260.24 872.901 1257.68 881.651 1255.55 884.875C1254.69 885.796 1253.84 886.257 1252.99 886.257C1241.04 886.257 1216.29 839.283 1205.2 819.48L1202.64 814.875C1186.85 785.861 1169.79 777.572 1151.87 768.822C1138.64 762.374 1125.41 755.927 1111.33 741.19C1099.81 729.216 1090.43 715.861 1081.89 702.966C1071.65 688.229 1061.41 673.032 1047.33 659.676C1041.36 654.15 1036.24 649.084 1031.12 644.018C991.866 606.255 975.653 590.597 916.346 575.86C889.466 568.952 881.36 554.676 872.826 539.018C865.573 526.123 858.32 513.228 840.826 503.557C833.573 499.412 825.466 497.57 816.08 497.57C806.693 497.57 796.88 499.412 787.493 501.715C778.106 503.557 768.72 505.86 759.76 505.86C746.96 505.86 736.72 501.715 726.906 493.425C719.653 486.517 716.24 475.004 712.826 463.03C710.266 453.82 707.28 444.149 702.586 437.241C698.32 430.793 691.066 427.109 684.24 423.425C676.133 418.82 668.026 414.675 665.04 406.846C658.213 389.346 658.64 374.609 665.893 362.635C682.96 335.003 735.44 329.016 776.4 329.016C798.586 329.016 816.933 330.859 823.333 331.78C836.986 333.161 854.053 336.845 871.973 340.99C902.693 347.438 937.253 355.267 968.4 355.267C995.28 355.267 1015.76 349.74 1030.69 338.227C1068.24 309.674 1057.15 266.845 1046.91 225.397C1035.81 181.187 1024.29 135.134 1070.37 105.199C1075.92 101.515 1083.17 99.6729 1092.13 99.6729C1119.44 99.6729 1158.27 115.791 1195.81 131.449C1228.24 145.265 1259.39 158.16 1279.44 158.621C1282.43 158.621 1285.41 158.621 1287.97 158.621C1331.07 158.621 1374.59 150.792 1416.83 142.963C1459.07 135.134 1502.59 127.305 1545.25 127.305C1575.12 127.305 1602.43 130.989 1628.03 139.278C1651.92 146.647 1675.39 156.318 1698.43 167.371V163.686C1675.39 152.634 1652.35 143.423 1628.88 136.055C1602.85 128.226 1575.55 124.081 1545.25 124.081C1502.16 124.081 1458.64 131.91 1416.4 139.739C1374.59 147.568 1331.07 155.397 1287.97 155.397C1284.99 155.397 1282.43 155.397 1279.44 155.397C1259.81 154.936 1229.52 142.042 1197.09 128.686C1159.55 113.028 1120.29 96.4492 1092.13 96.4492C1082.32 96.4492 1074.64 98.2913 1068.67 102.436C1020.88 133.752 1032.4 180.726 1043.92 226.318C1053.73 266.845 1063.55 306.911 1028.13 334.082Z" fill="white"/><path d="M665.04 216.646C674 216.646 684.667 215.265 700.453 212.501C740.133 205.133 779.813 201.909 824.613 201.909C836.133 201.909 847.653 201.909 860.027 202.37C864.293 202.37 868.133 202.37 871.547 202.37C892.453 202.37 904.4 199.607 913.36 193.159C924.027 185.33 930.427 171.054 934.693 146.185C944.507 89.0796 965.413 37.9609 1001.25 -15H999.547C963.707 37.9609 942.8 89.0796 932.987 146.185C928.72 170.593 922.747 184.409 912.08 192.238C903.547 198.686 891.173 201.449 870.693 201.449C867.28 201.449 863.44 201.449 859.173 201.449C846.373 200.988 834.853 200.988 823.76 200.988C778.533 200.988 738.853 204.212 699.173 211.58C683.387 214.344 673.147 215.725 663.76 215.725C638.16 215.725 619.387 206.515 612.987 160.922C607.013 117.632 612.133 71.5795 618.107 40.724C621.947 20.9213 626.64 2.50011 633.04 -14.5395H631.76C625.36 2.03958 620.24 20.4607 616.827 40.2635C611.28 71.1189 605.733 117.172 611.707 160.922C618.96 200.067 633.893 216.646 665.04 216.646Z" fill="white"/><path d="M682.96 181.646C686.8 181.646 691.493 181.185 695.76 180.264C729.467 174.277 766.16 170.593 803.707 169.672C812.667 169.211 820.773 169.672 828.88 169.672C834.427 169.672 839.547 170.132 844.24 170.132C859.6 170.132 875.387 168.751 887.76 159.54C898 151.711 905.253 139.277 909.947 120.395C922.747 70.1975 941.093 25.5261 965.84 -15.4609H964.133C939.387 25.0656 921.04 69.7369 908.667 119.935C903.973 138.356 897.147 150.79 886.907 158.159C874.96 167.369 859.173 168.29 844.24 168.29C839.12 168.29 834 168.29 828.88 167.83C820.773 167.83 812.24 167.369 803.707 167.83C766.16 168.751 729.467 172.435 695.76 178.422C676.133 182.106 661.627 177.501 652.667 165.988C632.187 138.816 643.28 78.487 649.253 45.7894C653.52 23.2235 659.493 2.4997 668.027 -15.4609H666.747C658.64 2.96023 652.667 23.2235 648.4 45.7894C642.427 78.487 631.333 139.737 652.24 167.369C658.64 177.04 669.307 181.646 682.96 181.646Z" fill="white"/></g><g filter="url(#filter0_f_2001_338)"><circle cx="1448" cy="74" r="249" fill="#B3FC6A" fill-opacity="0.5"/></g><g filter="url(#filter1_f_2001_338)"><circle cx="9" cy="597" r="249" fill="#ED474A" fill-opacity="0.53"/></g></g><defs><filter id="filter0_f_2001_338" x="699" y="-675" width="1498" height="1498" filterUnits="userSpaceOnUse" color-interpolation-filters="sRGB"><feGaussianBlur stdDeviation="250"/></filter><filter id="filter1_f_2001_338" x="-740" y="-152" width="1498" height="1498" filterUnits="userSpaceOnUse" color-interpolation-filters="sRGB"><feGaussianBlur stdDeviation="250"/></filter><clipPath id="clip0_2001_338"><rect width="1476" height="513" fill="white"/></clipPath><clipPath id="clip1_2001_338"><rect width="1920" height="544" fill="white" transform="translate(-222 -15)"/></clipPath></defs></svg>